<?xml version="1.0" standalone="no"?>
<!DOCTYPE svg PUBLIC "-//W3C//DTD SVG 20010904//EN"
 "http://www.w3.org/TR/2001/REC-SVG-20010904/DTD/svg10.dtd">
<svg version="1.0" xmlns="http://www.w3.org/2000/svg"
 width="512.000000pt" height="512.000000pt" viewBox="0 0 512.000000 512.000000"
 preserveAspectRatio="xMidYMid meet">
<metadata>
Created by potrace 1.14, written by Peter Selinger 2001-2017
</metadata>
<g transform="translate(0.000000,512.000000) scale(0.100000,-0.100000)"
fill="#000000" stroke="none">
<path d="M2578 3945 c-2 -1 -34 -5 -73 -9 -38 -3 -83 -8 -100 -11 -298 -57
-486 -148 -668 -326 l-67 -66 6 -72 c3 -40 2 -72 -3 -70 -4 2 -30 16 -58 30
-135 71 -301 98 -465 75 -30 -5 -58 -10 -61 -12 -3 -2 -2 -27 2 -56 5 -29 11
-73 14 -98 3 -25 7 -54 9 -65 2 -11 7 -45 11 -75 4 -30 10 -66 12 -80 2 -14 6
-45 8 -70 3 -25 8 -57 11 -72 3 -17 1 -28 -5 -28 -16 0 -2 -131 17 -160 9 -14
17 -29 18 -35 1 -5 5 -30 9 -55 3 -25 15 -101 25 -170 10 -69 21 -145 24 -170
3 -25 8 -54 10 -65 3 -17 15 -99 21 -145 1 -8 5 -33 9 -55 3 -22 8 -58 11 -80
2 -22 7 -53 10 -69 3 -16 7 -59 9 -95 2 -36 8 -84 14 -106 6 -22 13 -67 16
-99 3 -33 8 -61 10 -63 4 -4 170 13 231 24 17 2 44 6 60 8 79 7 162 17 178 21
14 4 17 -1 18 -28 3 -86 14 -176 24 -186 8 -9 1608 -3 1617 6 8 8 15 76 17
161 l1 44 68 -7 c96 -10 133 -14 167 -20 48 -8 167 -20 204 -21 37 0 36 -3 46
97 4 32 10 72 16 90 5 18 9 52 9 75 0 24 7 89 15 145 9 57 17 116 20 133 2 16
8 59 14 95 6 36 13 85 16 109 3 23 7 55 9 70 3 14 7 46 11 71 3 25 8 58 11 73
3 15 7 44 9 65 6 76 27 168 42 184 19 21 32 175 14 164 -6 -4 -9 -1 -6 6 2 7
7 33 10 58 3 25 8 61 11 80 3 19 7 51 9 70 2 19 4 35 5 35 2 0 4 18 14 95 8
66 11 91 20 147 4 23 3 44 -1 46 -14 8 -105 19 -178 21 -110 3 -253 -33 -357
-89 -14 -8 -29 -15 -33 -15 -3 0 -4 31 -1 69 l5 69 -72 69 c-75 71 -167 143
-185 143 -6 0 -12 4 -14 8 -6 17 -155 88 -243 117 -60 19 -194 50 -265 61 -38
5 -307 13 -312 9z m-1197 -499 c1 -17 3 -53 5 -81 5 -68 13 -210 19 -322 5
-88 4 -93 -15 -93 -17 0 -20 7 -21 53 -1 28 -3 66 -5 82 -2 17 -5 64 -8 105
-3 41 -8 118 -11 170 -4 52 -7 97 -7 100 -1 21 5 27 22 23 14 -4 20 -14 21
-37z m2604 -6 c-2 -25 -6 -85 -10 -135 -3 -49 -8 -121 -11 -160 -3 -38 -7 -90
-9 -115 -1 -25 -3 -53 -4 -62 0 -11 -9 -18 -20 -18 -21 0 -21 -8 -7 190 2 36
7 117 11 180 6 101 11 161 14 167 1 1 10 1 21 0 17 -1 19 -7 15 -47z m-2354
-57 c0 -10 2 -34 4 -53 1 -19 5 -71 9 -115 8 -110 17 -206 21 -232 2 -13 0
-25 -5 -28 -16 -10 -19 13 -35 235 -11 154 -15 192 -21 201 -3 5 2 9 10 9 9 0
16 -8 17 -17z m2077 -75 c-4 -46 -10 -121 -13 -168 -4 -47 -8 -105 -10 -130
-2 -25 -4 -48 -4 -52 -1 -5 -5 -8 -11 -8 -9 0 -6 138 5 216 2 17 7 73 11 125
6 96 10 113 23 105 4 -3 3 -42 -1 -88z m-2032 -546 c3 -17 10 -92 20 -202 2
-30 6 -75 9 -100 2 -25 7 -73 10 -108 3 -34 8 -79 10 -100 2 -20 6 -71 10
-112 10 -107 13 -139 19 -192 4 -35 2 -48 -9 -52 -19 -7 -16 -18 -29 134 -3
41 -9 100 -11 130 -3 30 -7 84 -10 120 -4 58 -12 172 -20 270 -12 156 -16 244
-9 237 4 -4 9 -15 10 -25z m1990 1 c-3 -16 -8 -73 -11 -128 -4 -55 -8 -116
-10 -135 -2 -19 -6 -79 -10 -132 -4 -53 -8 -109 -10 -125 -2 -15 -7 -73 -10
-128 -4 -55 -9 -118 -10 -140 -2 -22 -4 -49 -4 -61 -1 -12 -8 -21 -17 -21 -14
0 -15 12 -9 100 3 55 8 107 10 116 2 10 6 53 10 97 4 43 8 95 10 114 2 19 6
67 9 106 4 39 8 80 10 90 2 10 7 64 12 119 4 55 9 103 10 108 1 4 2 16 3 27 0
11 6 20 11 20 6 0 8 -12 6 -27z m-2240 -8 c2 -11 6 -56 9 -100 2 -44 7 -105
10 -135 9 -103 14 -165 20 -260 3 -52 8 -104 10 -115 4 -17 12 -131 18 -249 1
-16 -4 -31 -10 -33 -9 -3 -14 8 -15 36 -1 23 -3 53 -4 69 -2 15 -6 54 -8 87
-3 33 -8 80 -11 105 -3 25 -7 74 -10 110 -3 36 -8 83 -10 105 -3 22 -7 74 -10
115 -3 41 -8 91 -10 110 -3 19 -7 68 -11 108 -6 68 -5 74 11 70 10 -1 19 -12
21 -23z m2507 9 c0 -5 -4 -47 -8 -94 -9 -123 -13 -168 -19 -227 -10 -86 -23
-232 -31 -333 -3 -30 -7 -80 -11 -110 -5 -51 -9 -95 -13 -129 -1 -11 -4 -11
-16 -1 -8 7 -12 16 -10 21 3 4 8 43 10 86 2 43 5 78 5 78 2 0 3 20 14 165 4
47 9 110 12 140 7 82 13 155 20 250 4 47 8 99 9 115 2 17 3 36 4 43 1 8 9 12
19 10 9 -2 16 -8 15 -14z m-2162 -1013 c0 -14 2 -45 5 -67 4 -32 2 -43 -10
-47 -9 -4 -17 -3 -17 1 -6 30 -12 127 -10 144 3 20 31 -8 32 -31z m1813 -17
c-2 -71 -9 -99 -25 -99 -15 0 -15 27 -4 113 9 60 30 50 29 -14z m-2078 -10 c8
-112 7 -131 -5 -118 -14 14 -20 145 -7 141 6 -2 12 -12 12 -23z m2331 -31 c-4
-32 -6 -66 -7 -75 0 -10 -5 -18 -10 -18 -7 0 -9 21 -6 58 2 31 5 65 5 75 1 9
6 17 12 17 8 0 10 -18 6 -57z"/>
</g>
</svg>
